<svg width="24" height="24" viewBox="0 0 24 24" fill="none" xmlns="http://www.w3.org/2000/svg">
<path d="M4.476 12.9375V12.942C4.45073 13.0373 4.40694 13.1266 4.34712 13.205C4.2873 13.2833 4.21263 13.3491 4.12737 13.3985C4.04211 13.448 3.94794 13.4801 3.85024 13.4932C3.75255 13.5062 3.65324 13.4999 3.558 13.4745C2.9115 13.3035 3.0255 12.558 3.0255 12.558L3.0525 12.465C3.0525 12.465 3.0915 12.339 3.123 12.2475C3.50793 11.1682 4.07459 10.1627 4.79849 9.2745C6.14399 7.6335 8.4075 6 12 6C15.5925 6 17.856 7.6335 19.203 9.2745C19.9269 10.1627 20.4936 11.1682 20.8785 12.2475C20.9107 12.3403 20.9408 12.4338 20.9685 12.528L20.973 12.5475V12.5535L20.9745 12.5565C21.0221 12.7474 20.9927 12.9493 20.8928 13.1188C20.7929 13.2883 20.6304 13.4117 20.4403 13.4625C20.2502 13.5132 20.0478 13.4873 19.8767 13.3902C19.7056 13.2931 19.5794 13.1327 19.5255 12.9435L19.524 12.9375L19.512 12.9C19.427 12.6345 19.3268 12.3741 19.212 12.12C18.9063 11.4402 18.513 10.8033 18.042 10.2255C16.929 8.868 15.066 7.5 12 7.5C8.934 7.5 7.07249 8.868 5.95799 10.2255C5.34675 10.9762 4.86743 11.8253 4.5405 12.7365C4.52196 12.7907 4.50446 12.8452 4.488 12.9L4.476 12.9375ZM8.25 14.25C8.25 13.2554 8.64508 12.3016 9.34835 11.5983C10.0516 10.8951 11.0054 10.5 12 10.5C12.9946 10.5 13.9484 10.8951 14.6516 11.5983C15.3549 12.3016 15.75 13.2554 15.75 14.25C15.75 15.2446 15.3549 16.1984 14.6516 16.9017C13.9484 17.6049 12.9946 18 12 18C11.0054 18 10.0516 17.6049 9.34835 16.9017C8.64508 16.1984 8.25 15.2446 8.25 14.25Z" fill="black"/>
</svg>
