<svg width="24" height="24" viewBox="0 0 24 24" fill="none" xmlns="http://www.w3.org/2000/svg">
<path d="M7.024 2.31C7.77497 2.56439 8.48937 2.91605 9.149 3.356C10.0806 3.11791 11.0385 2.9983 12 3C12.993 3 13.951 3.124 14.849 3.355C15.5084 2.91548 16.2224 2.56416 16.973 2.31C17.67 2.073 18.663 1.689 19.253 2.342C19.653 2.786 19.753 3.53 19.824 4.098C19.904 4.732 19.923 5.558 19.713 6.378C20.516 7.415 21 8.652 21 10C21 12.042 19.894 13.815 18.257 15.043C17.4692 15.6265 16.5954 16.084 15.667 16.399C15.881 16.889 16 17.431 16 18V21C16 21.2652 15.8946 21.5196 15.7071 21.7071C15.5196 21.8946 15.2652 22 15 22H9C8.73478 22 8.48043 21.8946 8.29289 21.7071C8.10536 21.5196 8 21.2652 8 21V20.009C7.045 20.126 6.244 20.022 5.563 19.733C4.851 19.431 4.355 18.963 3.982 18.515C3.628 18.091 3.242 17.135 2.684 16.949C2.55938 16.9075 2.44415 16.8419 2.34489 16.7558C2.24563 16.6698 2.16429 16.5651 2.10551 16.4476C1.9868 16.2104 1.96719 15.9357 2.051 15.684C2.13481 15.4323 2.31517 15.2242 2.5524 15.1055C2.78964 14.9868 3.06431 14.9672 3.316 15.051C3.982 15.273 4.416 15.753 4.713 16.139C5.193 16.759 5.583 17.569 6.343 17.892C6.656 18.025 7.115 18.112 7.833 18.014L8 17.98C8.00191 17.4358 8.11524 16.8977 8.333 16.399C7.40459 16.084 6.53081 15.6265 5.743 15.043C4.106 13.815 3 12.043 3 10C3 8.654 3.483 7.418 4.284 6.382C4.074 5.562 4.092 4.734 4.172 4.099L4.177 4.061C4.25 3.479 4.335 2.794 4.743 2.342C5.333 1.689 6.327 2.074 7.023 2.311L7.024 2.31Z" fill="black"/>
</svg>
