<svg width="24" height="24" viewBox="0 0 24 24" fill="none" xmlns="http://www.w3.org/2000/svg">
<path d="M19.5131 16.6931L12.6441 21.5456C12.4556 21.6787 12.2306 21.7501 12 21.7501C11.7693 21.7501 11.5443 21.6787 11.3559 21.5456L4.48687 16.6931C3.60458 16.0608 2.93503 15.1755 2.56676 14.1543C2.19848 13.1332 2.14883 12.0243 2.42437 10.9744L4.28906 3.84376C4.34843 3.61205 4.48046 3.40545 4.6658 3.25424C4.85114 3.10304 5.08004 3.01518 5.31895 3.00354C5.55786 2.9919 5.79422 3.0571 5.99337 3.18958C6.19253 3.32206 6.34401 3.51485 6.42562 3.73969L8.08312 8.25001H15.9169L17.5744 3.73782C17.6562 3.51301 17.8078 3.32032 18.0071 3.18798C18.2064 3.05565 18.4428 2.99064 18.6817 3.00249C18.9207 3.01433 19.1495 3.10241 19.3347 3.25381C19.5199 3.40521 19.6518 3.61196 19.7109 3.84376L21.5766 10.98C21.8508 12.0292 21.8003 13.137 21.4319 14.157C21.0636 15.177 20.3945 16.0613 19.5131 16.6931Z" fill="black"/>
</svg>
