<svg width="24" height="24" viewBox="0 0 24 24" fill="none" xmlns="http://www.w3.org/2000/svg">
<path d="M4.28571 15.4286C6.17926 15.4286 7.71429 13.8935 7.71429 12C7.71429 10.1065 6.17926 8.57143 4.28571 8.57143C2.39217 8.57143 0.857143 10.1065 0.857143 12C0.857143 13.8935 2.39217 15.4286 4.28571 15.4286Z" stroke="black" stroke-width="1.71429" stroke-linecap="round" stroke-linejoin="round"/>
<path d="M19.7143 7.71429C21.6078 7.71429 23.1429 6.17927 23.1429 4.28572C23.1429 2.39217 21.6078 0.857147 19.7143 0.857147C17.8207 0.857147 16.2857 2.39217 16.2857 4.28572C16.2857 6.17927 17.8207 7.71429 19.7143 7.71429Z" stroke="black" stroke-width="1.71429" stroke-linecap="round" stroke-linejoin="round"/>
<path d="M19.7143 23.1429C21.6078 23.1429 23.1429 21.6078 23.1429 19.7143C23.1429 17.8207 21.6078 16.2857 19.7143 16.2857C17.8207 16.2857 16.2857 17.8207 16.2857 19.7143C16.2857 21.6078 17.8207 23.1429 19.7143 23.1429Z" stroke="black" stroke-width="1.71429" stroke-linecap="round" stroke-linejoin="round"/>
<path d="M6.36 9.2743L16.3886 5.10858M6.36 14.7257L16.3886 18.8914" stroke="black" stroke-width="1.71429" stroke-linecap="round" stroke-linejoin="round"/>
</svg>
