<svg width="24" height="24" viewBox="0 0 24 24" fill="none" xmlns="http://www.w3.org/2000/svg">
<path d="M14.5043 17.4412C15.7796 17.1492 16.9968 16.645 18.105 15.9495C18.4957 15.6858 18.7685 15.2805 18.8656 14.8193C18.9628 14.3581 18.8768 13.8771 18.6257 13.4782C18.3746 13.0793 17.9782 12.7938 17.5203 12.6819C17.0624 12.5701 16.579 12.6408 16.1723 12.879C14.921 13.6602 13.4755 14.0743 12.0004 14.0743C10.5253 14.0743 9.0798 13.6602 7.82851 12.879C7.42228 12.6229 6.93112 12.5382 6.46259 12.6435C5.99406 12.7488 5.58635 13.0355 5.32876 13.4407V13.4445C5.20149 13.6458 5.11519 13.8702 5.07481 14.1048C5.03443 14.3395 5.04076 14.5798 5.09343 14.8121C5.1461 15.0443 5.24409 15.2638 5.38177 15.4581C5.51945 15.6524 5.69411 15.8176 5.89576 15.9443L5.89876 15.948C7.00411 16.6436 8.21929 17.147 9.49276 17.4368L6.02776 20.901C5.68849 21.234 5.49512 21.6879 5.49006 22.1633C5.485 22.6386 5.66865 23.0966 6.00076 23.4368L6.03151 23.4675C6.37576 23.8223 6.84076 23.9985 7.30576 23.9985C7.77076 23.9985 8.23501 23.8223 8.57851 23.4675L12.0008 20.0648L15.4028 23.472C16.1258 24.1627 17.274 24.147 17.97 23.4247C18.2966 23.0866 18.4792 22.6349 18.4792 22.1647C18.4792 21.6946 18.2966 21.2429 17.97 20.9047L14.5043 17.4412ZM12 12.387C13.6422 12.386 15.2169 11.7334 16.3784 10.5725C17.5399 9.41157 18.1932 7.83719 18.195 6.195C18.195 2.781 15.414 0 12 0C8.58601 0 5.80501 2.781 5.80501 6.195C5.80679 7.83754 6.46003 9.4123 7.62141 10.5738C8.78279 11.7353 10.3575 12.3888 12 12.3907V12.387ZM12 3.633C12.6794 3.6334 13.3308 3.90345 13.8112 4.38383C14.2916 4.86421 14.5616 5.51564 14.562 6.195C14.5618 6.87491 14.292 7.52699 13.8117 8.00825C13.3314 8.48951 12.6799 8.76066 12 8.76225C11.3198 8.76047 10.668 8.48937 10.1872 8.00826C9.70636 7.52715 9.43564 6.87519 9.43426 6.195C9.43663 5.51525 9.70771 4.86402 10.1884 4.38336C10.669 3.9027 11.3203 3.63162 12 3.62925V3.633Z" fill="black"/>
</svg>
