<svg width="24" height="24" viewBox="0 0 24 24" fill="none" xmlns="http://www.w3.org/2000/svg">
<path d="M13 17.8333C11.8889 17.8333 10.8222 17.3556 10.0556 16.5556L8.73333 21L8.64444 21.2889L8.6 21.2667C8.32222 21.7222 7.84444 22 7.3 22C6.46667 22 5.77778 21.3111 5.77778 20.4667C5.77778 20.4 5.78889 20.3333 5.8 20.2667L5.77778 20.2556L5.84444 20.0111L8.41111 12.2889C8.41111 12.2889 8.13333 11.4444 8.13333 10.2444C8.13333 7.85556 9.42222 7.13333 10.4444 7.13333C11.4778 7.13333 12.4222 7.5 12.4222 8.95556C12.4222 10.8222 11.1778 11.7778 11.1778 13.1111C11.1778 14.1556 12.0222 14.9889 13.0444 14.9889C16.2889 14.9889 17.4444 12.5556 17.4444 10.2667C17.4444 7.23333 14.8222 4.77778 11.6111 4.77778C8.38889 4.77778 5.77778 7.23333 5.77778 10.2667C5.77778 11.2 6.05556 12.1333 6.53333 12.9444C6.65556 13.1667 6.72222 13.4111 6.72222 13.6667C6.72222 14.4333 6.1 15.0556 5.33333 15.0556C4.84444 15.0556 4.38889 14.7778 4.13333 14.3667C3.38889 13.1111 3 11.7 3 10.2667C3 5.7 6.86667 2 11.6111 2C16.3556 2 20.2222 5.7 20.2222 10.2667C20.2222 13.9111 17.9556 17.8333 13 17.8333Z" fill="black"/>
</svg>
