<svg width="24" height="24" viewBox="0 0 24 24" fill="none" xmlns="http://www.w3.org/2000/svg">
<path d="M12.0644 5H12.1756C13.2032 5.00375 18.4098 5.04125 19.8136 5.41878C20.238 5.53399 20.6247 5.75858 20.9351 6.07008C21.2455 6.38158 21.4688 6.76909 21.5825 7.19389C21.7087 7.66892 21.7975 8.29771 21.8575 8.9465L21.87 9.07651L21.8975 9.40153L21.9075 9.53153C21.9888 10.6741 21.9988 11.7442 22 11.9779V12.0717C21.9988 12.3142 21.9875 13.4568 21.8975 14.6469L21.8875 14.7781L21.8762 14.9081C21.8137 15.6232 21.7212 16.3332 21.5825 16.8557C21.4691 17.2807 21.246 17.6684 20.9355 17.98C20.6251 18.2915 20.2382 18.516 19.8136 18.6309C18.3635 19.0209 12.8519 19.0484 12.0881 19.0496H11.9106C11.5243 19.0496 9.92675 19.0421 8.25164 18.9846L8.03913 18.9771L7.93037 18.9721L7.71661 18.9634L7.50284 18.9546C6.11526 18.8934 4.79392 18.7946 4.18514 18.6296C3.76072 18.5148 3.37392 18.2906 3.06347 17.9792C2.75303 17.6679 2.52984 17.2805 2.41628 16.8557C2.27752 16.3345 2.18501 15.6232 2.12251 14.9081L2.11251 14.7769L2.10251 14.6469C2.04081 13.7998 2.00663 12.951 2 12.1017L2 11.9479C2.0025 11.6792 2.0125 10.7504 2.08001 9.7253L2.08876 9.59654L2.09251 9.53153L2.10251 9.40153L2.13001 9.07651L2.14251 8.9465C2.20251 8.29771 2.29127 7.66767 2.41753 7.19389C2.5309 6.76892 2.754 6.38122 3.06446 6.06967C3.37492 5.75811 3.76182 5.53365 4.18639 5.41878C4.79517 5.25627 6.11651 5.15626 7.50409 5.09376L7.71661 5.08501L7.93162 5.07751L8.03913 5.07375L8.25289 5.065C9.4426 5.02672 10.6328 5.00547 11.8231 5.00125H12.0644V5ZM10.0005 9.01275V15.0356L15.1971 12.0254L10.0005 9.01275Z" fill="black"/>
</svg>
